<?xml version="1.0" encoding="UTF-8" standalone="no"?>
<svg
   width="680"
   height="120"
   viewBox="0 0 179.91667 31.75"
   version="1.1"
   id="svg8"
   sodipodi:docname="logo.svg"
   inkscape:version="1.4 (e7c3feb100, 2024-10-09)"
   xmlns:inkscape="http://www.inkscape.org/namespaces/inkscape"
   xmlns:sodipodi="http://sodipodi.sourceforge.net/DTD/sodipodi-0.dtd"
   xmlns="http://www.w3.org/2000/svg"
   xmlns:svg="http://www.w3.org/2000/svg"
   xmlns:rdf="http://www.w3.org/1999/02/22-rdf-syntax-ns#"
   xmlns:cc="http://creativecommons.org/ns#"
   xmlns:dc="http://purl.org/dc/elements/1.1/">
  <sodipodi:namedview
     id="namedview1"
     pagecolor="#ffffff"
     bordercolor="#666666"
     borderopacity="1.0"
     inkscape:showpageshadow="2"
     inkscape:pageopacity="0.0"
     inkscape:pagecheckerboard="0"
     inkscape:deskcolor="#d1d1d1"
     inkscape:zoom="2.5705882"
     inkscape:cx="87.91762"
     inkscape:cy="55.434783"
     inkscape:window-width="1920"
     inkscape:window-height="1049"
     inkscape:window-x="0"
     inkscape:window-y="0"
     inkscape:window-maximized="1"
     inkscape:current-layer="g861"
     showguides="true" />
  <defs
     id="defs2">
    <rect
       x="25.162016"
       y="84.327377"
       width="71.115189"
       height="52.835255"
       id="rect835" />
    <rect
       x="25.162016"
       y="84.327377"
       width="71.115189"
       height="52.835255"
       id="rect835-7" />
    <rect
       x="25.162016"
       y="84.327377"
       width="71.115189"
       height="52.835255"
       id="rect874" />
    <rect
       x="25.162016"
       y="84.327377"
       width="71.115189"
       height="52.835255"
       id="rect923" />
  </defs>
  <metadata
     id="metadata5">
    <rdf:RDF>
      <cc:Work
         rdf:about="">
        <dc:format>image/svg+xml</dc:format>
        <dc:type
           rdf:resource="http://purl.org/dc/dcmitype/StillImage" />
      </cc:Work>
    </rdf:RDF>
  </metadata>
  <g
     id="layer1"
     transform="translate(-25.362303,-29.275547)">
    <g
       id="g861"
       transform="translate(-42.114518,-17.993737)"
       style="fill:#ffffff">
      <g
         aria-label="L"
         id="text841"
         style="font-style:normal;font-weight:normal;font-size:43.3964px;line-height:1.25;font-family:sans-serif;letter-spacing:0px;word-spacing:0px;fill:#ffffff;fill-opacity:1;stroke:none;stroke-width:1.08492">
        <g
           id="g1137"
           transform="translate(4.1770911,2.6654938)"
           style="fill:#ffffff">
          <g
             id="g1125"
             transform="matrix(0.52412522,0,0,0.52412522,38.820457,28.540598)"
             style="fill:#ffffff">
            <g
               aria-label="众"
               transform="matrix(2.6901725,0,0,2.6901725,1.3789638,-187.06118)"
               id="text833"
               style="font-style:normal;font-weight:normal;font-size:10.5833px;line-height:1.25;font-family:sans-serif;letter-spacing:0px;word-spacing:0px;white-space:pre;shape-inside:url(#rect835);fill:#ffffff;fill-opacity:1;stroke:none" />
            <g
               id="g1"
               transform="matrix(1.2272758,0,0,1.2272758,-14.808229,-17.280187)"
               style="stroke-width:0.884007;fill:#ffffff">
              <path
                 d="m 100.40588,52.860561 -1.920222,2.372035 Q 89.885007,50.811249 86.157524,46.018769 82.51072,51.06943 74.394162,55.038959 L 72.344851,52.747605 Q 83.140034,47.745353 85.721844,40.726062 l 2.74317,0.855223 q -0.548634,1.613631 -0.726134,1.887949 3.485439,4.986118 12.667,9.391327 z m 0.51636,15.361754 -2.113858,2.017039 q -4.727937,-3.614532 -7.325879,-8.826555 -1.710449,4.840889 -7.083838,8.762009 l -2.113854,-1.952493 q 3.743623,-2.484988 5.615432,-5.857474 1.871811,-3.372487 2.129992,-9.617236 l 2.839988,0.242031 q 0,0.839085 -0.129088,2.097717 l -0.112944,1.129541 q 0,0.855224 0.952043,3.227259 0.968178,2.355901 2.807715,4.582709 1.855674,2.210673 4.534301,4.195438 z m -14.990624,-4.292253 -2.194537,1.968627 q -1.855674,-2.436582 -3.630667,-3.985666 -2.033173,4.437484 -6.309293,8.358603 l -2.146129,-1.92022 q 3.840439,-3.420896 5.518616,-6.874064 1.694309,-3.453167 2.178399,-8.729737 l 2.872262,0.306606 q -0.322728,2.936806 -1.145679,5.986568 3.130444,2.694759 4.857028,4.889298 z"
                 style="font-style:normal;font-variant:normal;font-weight:bold;font-stretch:normal;font-size:10.5833px;line-height:1.25;font-family:'Adobe Garamond Pro';-inkscape-font-specification:'Adobe Garamond Pro Bold';letter-spacing:0px;word-spacing:0px;white-space:pre;shape-inside:url(#rect835);fill:#ffffff;fill-opacity:1;stroke:none;stroke-width:2.37813"
                 id="path961" />
              <path
                 d="M 79.363204,76.831852 V 74.260006 H 68.072171 V 53.967512 h -2.916849 v 22.86434 z"
                 style="fill:#ffffff;stroke-width:0.550428"
                 id="path964" />
            </g>
          </g>
          <text
             xml:space="preserve"
             style="font-style:normal;font-weight:normal;font-size:22.7294px;line-height:1.25;font-family:sans-serif;letter-spacing:0px;word-spacing:0px;fill:#ffffff;fill-opacity:1;stroke:none;stroke-width:0.330261"
             x="98.391609"
             y="68.746391"
             id="text1129"><tspan
               id="tspan1127"
               x="98.391609"
               y="68.746391"
               style="font-size:22.7294px;stroke-width:0.330261;fill:#ffffff;fill-opacity:1">LibreTranslate</tspan></text>
        </g>
      </g>
    </g>
    <g
       id="g921"
       transform="translate(29.198135,-14.725175)" />
  </g>
</svg>
