<?xml version="1.0" encoding="UTF-8" standalone="no"?>
<svg
   width="680"
   height="120"
   viewBox="0 0 179.91667 31.75"
   version="1.1"
   id="svg8"
   xmlns="http://www.w3.org/2000/svg"
   xmlns:svg="http://www.w3.org/2000/svg"
   xmlns:rdf="http://www.w3.org/1999/02/22-rdf-syntax-ns#"
   xmlns:cc="http://creativecommons.org/ns#"
   xmlns:dc="http://purl.org/dc/elements/1.1/">
  <defs
     id="defs2">
    <rect
       x="25.162016"
       y="84.327377"
       width="71.115189"
       height="52.835255"
       id="rect835" />
    <rect
       x="25.162016"
       y="84.327377"
       width="71.115189"
       height="52.835255"
       id="rect835-7" />
    <rect
       x="25.162016"
       y="84.327377"
       width="71.115189"
       height="52.835255"
       id="rect874" />
    <rect
       x="25.162016"
       y="84.327377"
       width="71.115189"
       height="52.835255"
       id="rect923" />
  </defs>
  <metadata
     id="metadata5">
    <rdf:RDF>
      <cc:Work
         rdf:about="">
        <dc:format>image/svg+xml</dc:format>
        <dc:type
           rdf:resource="http://purl.org/dc/dcmitype/StillImage" />
      </cc:Work>
    </rdf:RDF>
  </metadata>
  <g
     id="layer1"
     transform="translate(-25.362303,-29.275547)">
    <g
       id="g861"
       transform="translate(-42.114518,-17.993737)"
       style="fill:#ffffff">
      <g
         aria-label="L"
         id="text841"
         style="font-style:normal;font-weight:normal;font-size:43.3964px;line-height:1.25;font-family:sans-serif;letter-spacing:0px;word-spacing:0px;fill:#ffffff;fill-opacity:1;stroke:none;stroke-width:1.08492">
        <g
           id="g1137"
           transform="translate(4.1770911,2.6654938)"
           style="fill:#ffffff">
          <g
             id="g1125"
             transform="matrix(0.52412522,0,0,0.52412522,38.820457,28.540598)"
             style="fill:#ffffff">
            <g
               aria-label="众"
               transform="matrix(2.6901725,0,0,2.6901725,1.3789638,-187.06118)"
               id="text833"
               style="font-style:normal;font-weight:normal;font-size:10.5833px;line-height:1.25;font-family:sans-serif;letter-spacing:0px;word-spacing:0px;white-space:pre;shape-inside:url(#rect835);fill:#ffffff;fill-opacity:1;stroke:none" />
            <g
               id="g1"
               transform="matrix(1.2272758,0,0,1.2272758,-14.808229,-17.280187)"
               style="stroke-width:0.884007;fill:#ffffff">
              <path
                 d="m 100.40588,52.860561 -1.920222,2.372035 Q 89.885007,50.811249 86.157524,46.018769 82.51072,51.06943 74.394162,55.038959 L 72.344851,52.747605 Q 83.140034,47.745353 85.721844,40.726062 l 2.74317,0.855223 q -0.548634,1.613631 -0.726134,1.887949 3.485439,4.986118 12.667,9.391327 z m 0.51636,15.361754 -2.113858,2.017039 q -4.727937,-3.614532 -7.325879,-8.826555 -1.710449,4.840889 -7.083838,8.762009 l -2.113854,-1.952493 q 3.743623,-2.484988 5.615432,-5.857474 1.871811,-3.372487 2.129992,-9.617236 l 2.839988,0.242031 q 0,0.839085 -0.129088,2.097717 l -0.112944,1.129541 q 0,0.855224 0.952043,3.227259 0.968178,2.355901 2.807715,4.582709 1.855674,2.210673 4.534301,4.195438 z m -14.990624,-4.292253 -2.194537,1.968627 q -1.855674,-2.436582 -3.630667,-3.985666 -2.033173,4.437484 -6.309293,8.358603 l -2.146129,-1.92022 q 3.840439,-3.420896 5.518616,-6.874064 1.694309,-3.453167 2.178399,-8.729737 l 2.872262,0.306606 q -0.322728,2.936806 -1.145679,5.986568 3.130444,2.694759 4.857028,4.889298 z"
                 style="font-style:normal;font-variant:normal;font-weight:bold;font-stretch:normal;font-size:10.5833px;line-height:1.25;font-family:'Adobe Garamond Pro';-inkscape-font-specification:'Adobe Garamond Pro Bold';letter-spacing:0px;word-spacing:0px;white-space:pre;shape-inside:url(#rect835);fill:#ffffff;fill-opacity:1;stroke:none;stroke-width:2.37813"
                 id="path961" />
              <path
                 d="M 79.363204,76.831852 V 74.260006 H 68.072171 V 53.967512 h -2.916849 v 22.86434 z"
                 style="fill:#ffffff;stroke-width:0.550428"
                 id="path964" />
            </g>
          </g>
          <path
             d="M 110.50638,68.746391 V 66.88258 H 102.3238 V 52.176658 h -2.11384 v 16.569733 z m 4.00037,0 V 56.836185 h -1.88654 v 11.910206 z m 0.25002,-13.705828 v -2.363858 h -2.36386 v 2.363858 z m 13.20579,7.614349 c 0,-3.863998 -1.95473,-6.159668 -5.09139,-6.159668 -1.63652,0 -2.79571,0.613694 -3.68216,1.954729 v -6.273315 h -1.88654 v 16.569733 h 1.7047 v -1.704705 c 0.90918,1.386494 2.11384,2.045646 3.77308,2.045646 3.13666,0 5.18231,-2.568422 5.18231,-6.43242 z m -1.97746,0.113647 c 0,2.704799 -1.40922,4.54588 -3.4776,4.54588 -2.00019,0 -3.31849,-1.818352 -3.31849,-4.523151 0,-2.795716 1.3183,-4.614068 3.31849,-4.52315 2.11384,0 3.4776,1.841081 3.4776,4.500421 z m 10.02366,-4.273127 v -1.931999 c -0.31821,-0.04546 -0.47732,-0.06819 -0.72734,-0.06819 -1.22739,0 -2.1593,0.727341 -3.25031,2.500234 v -2.159293 h -1.72743 v 11.910206 h 1.88654 v -6.182397 c 0,-2.682069 0.88644,-4.023104 3.81854,-4.068562 z m 11.70564,4.841362 c 0,-1.727435 -0.13638,-2.818446 -0.47732,-3.704892 -0.7728,-1.954729 -2.59115,-3.136658 -4.81863,-3.136658 -3.3185,0 -5.45506,2.454776 -5.45506,6.364233 0,3.909456 2.06838,6.227855 5.4096,6.227855 2.72753,0 4.61407,-1.545599 5.09138,-3.954915 h -1.90927 c -0.52277,1.568328 -1.59105,2.204751 -3.11392,2.204751 -1.97746,0 -3.45487,-1.272846 -3.50033,-4.000374 z m -2.02292,-1.681976 c 0,0 0,0.09092 -0.0227,0.136377 h -6.68244 c 0.1591,-2.113835 1.50014,-3.545787 3.40941,-3.545787 1.86381,0 3.29576,1.545599 3.29576,3.40941 z m 16.47881,-7.614349 v -1.863811 h -13.00122 v 1.863811 h 5.45506 v 14.705922 h 2.11384 V 54.040469 Z m 5.65962,4.454963 v -1.931999 c -0.31821,-0.04546 -0.47732,-0.06819 -0.72734,-0.06819 -1.22739,0 -2.15929,0.727341 -3.25031,2.500234 v -2.159293 h -1.72743 v 11.910206 h 1.88654 v -6.182397 c 0,-2.682069 0.88645,-4.023104 3.81854,-4.068562 z m 12.31936,10.2055 V 67.26898 c -0.20457,0.04546 -0.29549,0.04546 -0.40913,0.04546 -0.65916,0 -1.02283,-0.340941 -1.02283,-0.931905 v -6.636985 c 0,-2.113835 -1.5456,-3.250305 -4.47769,-3.250305 -2.88663,0 -4.65953,1.113741 -4.77317,3.863998 h 1.90927 c 0.1591,-1.454681 1.02282,-2.113834 2.79571,-2.113834 1.70471,0 2.65934,0.636423 2.65934,1.772893 v 0.500047 c 0,0.795529 -0.47731,1.13647 -1.97745,1.318306 -2.68207,0.340941 -3.0912,0.431858 -3.81854,0.72734 -1.3865,0.568235 -2.09111,1.636517 -2.09111,3.091199 0,2.159293 1.50014,3.432139 3.90946,3.432139 1.52287,0 3.00028,-0.636423 4.04583,-1.750164 0.20457,0.909176 1.02282,1.568329 1.95473,1.568329 0.3864,0 0.68188,-0.04546 1.29558,-0.204565 z m -3.3185,-4.068562 c 0,1.704705 -1.72743,2.795716 -3.56851,2.795716 -1.47741,0 -2.34113,-0.522776 -2.34113,-1.818352 0,-1.250117 0.84099,-1.795623 2.8639,-2.091105 2.00019,-0.272753 2.40932,-0.36367 3.04574,-0.659152 z m 14.86503,4.114021 v -9.000842 c 0,-1.977458 -1.47741,-3.250305 -3.77308,-3.250305 -1.7729,0 -2.90937,0.681882 -3.95492,2.341129 v -2.000188 h -1.75016 v 11.910206 h 1.88654 v -6.568796 c 0,-2.432046 1.3183,-4.023104 3.2503,-4.023104 1.50014,0 2.45478,0.909176 2.45478,2.341128 v 8.250772 z m 12.00112,-3.341222 c 0,-1.772893 -1.0001,-2.659339 -3.36395,-3.227574 l -1.81836,-0.431859 c -1.5456,-0.363671 -2.20475,-0.863717 -2.20475,-1.704705 0,-1.091011 0.97737,-1.795623 2.52297,-1.795623 1.52287,0 2.34112,0.659153 2.38658,1.90927 h 2.00019 c -0.0227,-2.341128 -1.56833,-3.659434 -4.31859,-3.659434 -2.77298,0 -4.56861,1.431953 -4.56861,3.636704 0,1.863811 0.95464,2.750258 3.77308,3.43214 l 1.7729,0.431859 c 1.3183,0.318211 1.84108,0.704611 1.84108,1.568328 0,1.113741 -1.11374,1.772893 -2.77299,1.772893 -1.7047,0 -2.65934,-0.409129 -2.90936,-2.227481 h -2.00019 c 0.0909,2.750258 1.63652,3.977645 4.75045,3.977645 3.00028,0 4.90955,-1.386493 4.90955,-3.682163 z m 4.36404,3.341222 V 52.176658 h -1.88654 v 16.569733 z m 13.77402,-0.04546 V 67.26898 c -0.20456,0.04546 -0.29548,0.04546 -0.40913,0.04546 -0.65915,0 -1.02282,-0.340941 -1.02282,-0.931905 v -6.636985 c 0,-2.113835 -1.5456,-3.250305 -4.47769,-3.250305 -2.88664,0 -4.65953,1.113741 -4.77318,3.863998 h 1.90927 c 0.15911,-1.454681 1.02283,-2.113834 2.79572,-2.113834 1.7047,0 2.65934,0.636423 2.65934,1.772893 v 0.500047 c 0,0.795529 -0.47732,1.13647 -1.97746,1.318306 -2.68207,0.340941 -3.0912,0.431858 -3.81854,0.72734 -1.38649,0.568235 -2.0911,1.636517 -2.0911,3.091199 0,2.159293 1.50014,3.432139 3.90945,3.432139 1.52287,0 3.00028,-0.636423 4.04584,-1.750164 0.20456,0.909176 1.02282,1.568329 1.95472,1.568329 0.3864,0 0.68189,-0.04546 1.29558,-0.204565 z m -3.31849,-4.068562 c 0,1.704705 -1.72744,2.795716 -3.56852,2.795716 -1.47741,0 -2.34113,-0.522776 -2.34113,-1.818352 0,-1.250117 0.84099,-1.795623 2.86391,-2.091105 2.00019,-0.272753 2.40931,-0.36367 3.04574,-0.659152 z m 9.56907,4.114021 v -1.591058 c -0.25002,0.06819 -0.5455,0.09092 -0.90917,0.09092 -0.81826,0 -1.04556,-0.227294 -1.04556,-1.068282 v -7.796184 h 1.95473 v -1.5456 h -1.95473 v -3.273033 h -1.88654 v 3.273033 h -1.61378 v 1.5456 h 1.61378 v 8.637172 c 0,1.204658 0.81826,1.88654 2.29567,1.88654 0.45459,0 0.90918,-0.04546 1.5456,-0.159106 z m 11.86476,-5.409597 c 0,-1.727435 -0.13638,-2.818446 -0.47732,-3.704892 -0.7728,-1.954729 -2.59115,-3.136658 -4.81863,-3.136658 -3.31849,0 -5.45506,2.454776 -5.45506,6.364233 0,3.909456 2.06838,6.227855 5.4096,6.227855 2.72753,0 4.61407,-1.545599 5.09139,-3.954915 h -1.90927 c -0.52278,1.568328 -1.59106,2.204751 -3.11393,2.204751 -1.97746,0 -3.45487,-1.272846 -3.50033,-4.000374 z m -2.02292,-1.681976 c 0,0 0,0.09092 -0.0227,0.136377 h -6.68244 c 0.15911,-2.113835 1.50014,-3.545787 3.40941,-3.545787 1.86381,0 3.29576,1.545599 3.29576,3.40941 z"
             id="text1129"
             style="font-size:22.7294px;stroke-width:0.330261"
             aria-label="LibreTranslate" />
        </g>
      </g>
    </g>
    <g
       id="g921"
       transform="translate(29.198135,-14.725175)" />
  </g>
</svg>
